<svg width="342" height="47" viewBox="0 0 342 47" fill="none" xmlns="http://www.w3.org/2000/svg">
<path d="M49.6059 46.7145H82.3419V38.0758H59.4949V27.5048H78.4204V18.8662H59.4949V9.09081H82.4556V0.452148H49.6059V46.7145ZM121.727 29.5508L100.301 0.452148H85.5246L90.1281 6.30598V46.8281H100.017V16.4791L122.182 46.7145H131.616V0.452148H121.727V29.5508ZM34.6588 22.9013C38.9781 22.0488 42.6155 18.0137 42.6155 12.3303C42.5586 6.19232 38.1256 0.452148 29.2028 0.452148H0.501953L4.93495 6.13548V46.7145H30.169C39.0918 46.7145 43.6953 41.1448 43.6953 34.1543C43.5816 28.471 39.6601 23.5833 34.6588 22.9013ZM14.8808 9.14765H27.2705C30.6236 9.14765 32.7265 11.08 32.7265 14.0353C32.7265 16.9338 30.6236 18.923 27.2705 18.923H14.8808V9.14765ZM27.7251 38.1326H14.9376V27.5048H27.7251C31.4761 27.5048 33.579 29.8918 33.579 32.7903C33.579 36.1435 31.3624 38.0758 27.7251 38.1326ZM276.371 29.5508H281.543V35.0068C278.872 37.2233 275.518 38.4168 272.052 38.4737C263.811 38.4737 257.957 32.222 257.957 23.697C257.957 15.2288 263.811 8.92032 272.052 8.92032C276.371 8.97715 280.349 11.1368 282.623 14.7741L290.409 10.4548C287.056 5.16932 281.202 0.452148 271.881 0.452148C258.809 0.452148 247.897 9.48865 247.897 23.5833C247.897 37.678 258.639 46.7145 271.881 46.7145C279.099 46.8282 286.033 43.7591 290.807 38.36V21.2531H269.721L276.371 29.5508ZM231.814 29.5508L210.331 0.452148H195.554L200.157 6.30598V46.8281H210.046V16.4791L232.211 46.7145H241.703V0.452148H231.814V29.5508ZM323.599 0.452148H304.503L309.107 6.30598L308.254 8.52248L293.478 46.8281H304.617L307.516 39.042H327.464L330.363 46.8281H341.502L323.599 0.452148ZM310.13 30.2897L317.348 10.3412L324.566 30.2897H310.13ZM179.982 0.452148H189.871V46.8281H179.982V0.452148ZM172.025 8.40881V0.452148H137.186V9.09081H159.067L137.186 38.7578V46.7145H172.423V38.0758H149.974L172.025 8.40881Z" fill="#DEE1FF"/>
</svg>
