<svg width="352" height="57" viewBox="0 0 352 57" fill="none" xmlns="http://www.w3.org/2000/svg">
<path d="M19.4027 12.2849C16.8865 12.2849 14.8969 13.3381 13.5511 15.3862C12.1467 17.4343 11.4445 20.3016 11.4445 23.9296C11.4445 31.4782 14.3118 35.2817 20.0464 35.2817C21.8019 35.2817 23.4403 34.9892 25.1373 34.5795C26.7172 34.1114 28.4142 33.5262 30.0526 32.8241V41.8355C26.7757 43.2399 23.0307 43.9421 18.9346 43.9421C12.9659 43.9421 8.46016 42.2452 5.3588 38.7927C2.25744 35.3402 0.501953 30.3664 0.501953 23.8711C0.501953 19.7749 1.32118 16.2054 2.8426 13.1041C4.36402 10.0027 6.58764 7.66209 9.39642 5.96512C12.2052 4.26815 15.7162 3.44891 19.5197 3.44891C23.7914 3.44891 27.7705 4.32666 31.6911 6.19918L28.4142 14.567C27.0098 13.8648 25.4884 13.3382 24.084 12.87C22.5626 12.4604 20.9826 12.2849 19.4027 12.2849ZM66.0401 28.1428C66.0401 33.1166 64.6942 37.0372 62.061 39.7875C59.3693 42.5377 55.6827 43.9421 50.8844 43.9421C46.2616 43.9421 42.6336 42.5377 39.8834 39.6704C37.1331 36.8031 35.7872 32.9996 35.7872 28.0842C35.7872 23.1104 37.1331 19.3068 39.7663 16.498C42.4581 13.7478 46.2616 12.3434 51.06 12.3434C54.1028 12.3434 56.6775 12.987 58.9596 14.2159C61.3003 15.4447 63.0558 17.3173 64.2846 19.7164C65.4549 22.1741 66.0401 24.9244 66.0401 28.1428ZM46.3201 28.1428C46.3201 30.7175 46.6712 32.7655 47.3734 34.1114C48.0756 35.4573 49.246 36.1595 50.9429 36.1595C52.5229 36.1595 53.6932 35.4573 54.3954 34.1114C55.0976 32.707 55.3902 30.7175 55.3902 28.1428C55.3902 25.568 55.0391 23.637 54.3954 22.2911C53.6932 20.9453 52.5229 20.3601 50.9429 20.3601C49.363 20.3601 48.1927 21.0038 47.4905 22.2911C46.6712 23.52 46.3201 25.451 46.3201 28.1428ZM82.6002 43.4155H72.1258V12.9871H82.6002V43.4155ZM71.8332 5.37995C71.8332 3.80002 72.3013 2.62969 73.1791 1.81046C74.0568 0.991234 75.5197 0.640137 77.4508 0.640137C79.3818 0.640137 80.8447 0.991234 81.7225 1.81046C82.6002 2.62969 83.0683 3.74149 83.0683 5.26291C83.0683 8.36427 81.1958 9.88569 77.4508 9.88569C73.7057 10.0027 71.8332 8.48131 71.8332 5.37995ZM109.167 43.4155V26.7969C109.167 24.7488 108.874 23.2274 108.289 22.2911C107.762 21.2378 106.767 20.7112 105.539 20.7112C103.783 20.7112 102.496 21.4134 101.735 22.8178C100.916 24.2222 100.565 26.6213 100.565 30.1323V43.474H90.0903V13.0456H97.99L99.3358 16.7906H99.9795C100.857 15.3862 102.086 14.2744 103.725 13.5722C105.304 12.87 107.118 12.5189 109.225 12.5189C112.619 12.5189 115.194 13.5137 117.066 15.4447C118.939 17.3758 119.934 20.1845 119.934 23.6955V43.5325H109.284L109.167 43.4155ZM150.362 34.1114C150.362 37.3883 149.309 39.7875 147.085 41.4844C144.861 43.1814 141.643 44.0007 137.488 44.0007C135.265 44.0007 133.334 43.8836 131.637 43.6496C129.94 43.357 128.243 42.9473 126.546 42.3037V33.8773C128.126 34.5795 129.94 35.2232 131.871 35.6328C133.802 36.101 135.499 36.335 137.137 36.335C139.478 36.335 140.531 35.8084 140.531 34.7551C140.531 34.2284 140.18 33.7603 139.536 33.3507C138.893 32.9411 137.02 32.1219 134.036 30.8345C131.286 29.6642 129.296 28.4353 128.184 26.9139C127.131 25.3925 126.487 23.637 126.487 21.2964C126.487 18.4291 127.541 16.2055 129.764 14.7425C131.988 13.1626 135.031 12.3434 139.01 12.3434C141.058 12.3434 142.93 12.6359 144.627 13.0456C146.383 13.5137 148.255 14.0989 150.128 14.9181L147.261 21.6475C145.856 21.0038 144.393 20.4771 142.813 20.0675C141.233 19.5994 139.946 19.3653 139.01 19.3653C137.313 19.3653 136.435 19.8335 136.435 20.5942C136.435 21.1208 136.728 21.5889 137.313 21.94C137.898 22.2911 139.653 22.9933 142.579 24.1636C144.686 25.0414 146.324 25.9191 147.319 26.7384C148.372 27.5576 149.192 28.6109 149.66 29.7812C150.069 31.0686 150.362 32.4144 150.362 34.1114ZM174.412 43.9421C172.891 43.9421 171.486 43.6495 170.257 43.2399C169.029 42.7133 167.858 41.8356 166.629 40.4897H166.161C166.512 42.5963 166.629 43.9421 166.629 44.4688V56.6401H156.155V12.9871H164.698L166.22 16.9076H166.688C168.619 13.9818 171.311 12.4604 174.763 12.4604C178.157 12.4604 180.79 13.8648 182.663 16.6151C184.594 19.3653 185.53 23.2859 185.53 28.0842C185.53 32.9996 184.535 36.8617 182.487 39.729C180.498 42.5377 177.806 43.9421 174.412 43.9421ZM170.901 20.6527C169.38 20.6527 168.209 21.1793 167.624 22.3497C166.981 23.4029 166.629 25.0999 166.629 27.265V28.0842C166.629 30.6589 166.981 32.59 167.683 33.7603C168.385 34.9306 169.438 35.5158 170.96 35.5158C172.306 35.5158 173.3 34.9891 173.885 33.8188C174.529 32.6485 174.763 30.7175 174.763 28.0257C174.763 25.451 174.471 23.5785 173.885 22.4082C173.3 21.2378 172.306 20.6527 170.901 20.6527ZM206.245 43.9421C201.154 43.9421 197.292 42.5962 194.425 39.963C191.674 37.2713 190.27 33.4092 190.27 28.3768C190.27 23.2274 191.616 19.3068 194.191 16.5565C196.765 13.8063 200.51 12.4019 205.309 12.4019C209.931 12.4019 213.384 13.5722 215.9 15.9714C218.416 18.3705 219.645 21.7645 219.645 26.2702V31.01H200.861C200.978 32.707 201.564 34.0529 202.734 34.9891C203.904 35.9839 205.484 36.3935 207.532 36.3935C209.405 36.3935 211.102 36.218 212.623 35.8669C214.203 35.5158 215.842 34.8721 217.714 34.1114V41.66C216.017 42.4792 214.32 43.0644 212.623 43.4155C210.809 43.7666 208.644 43.9421 206.245 43.9421ZM205.66 19.5994C204.431 19.5994 203.319 19.9505 202.558 20.7697C201.739 21.5889 201.213 22.7008 201.154 24.3977H210.224C210.224 22.8763 209.756 21.706 208.995 20.8282C208.059 20.0675 206.947 19.5994 205.66 19.5994ZM245.392 43.4155L243.344 39.4364H243.169C241.764 41.1919 240.301 42.3622 238.838 43.0059C237.317 43.6495 235.445 44.0007 233.162 44.0007C230.295 44.0007 228.013 43.1229 226.433 41.4259C224.736 39.729 223.917 37.2713 223.917 34.1114C223.917 30.893 225.087 28.4353 227.311 26.9139C229.534 25.334 232.811 24.3977 237.083 24.2222L242.174 24.0466V23.5785C242.174 21.0623 240.945 19.8334 238.429 19.8334C236.205 19.8334 233.338 20.5357 230.003 22.0571L226.96 15.0936C230.529 13.2211 234.976 12.3434 240.36 12.3434C244.28 12.3434 247.323 13.3382 249.43 15.2692C251.536 17.2002 252.648 19.892 252.648 23.3444V43.2399H245.451L245.392 43.4155ZM237.668 36.5106C238.897 36.5106 240.009 36.0424 240.945 35.2817C241.823 34.4625 242.291 33.4092 242.291 32.1804V29.7812L239.892 29.8982C236.439 30.0153 234.742 31.3026 234.742 33.7018C234.625 35.6328 235.62 36.5106 237.668 36.5106ZM270.028 26.2702C271.256 24.2222 272.368 22.7007 273.305 21.5304L280.151 12.9285H291.913L281.321 25.9191L292.498 43.4155H280.502L273.831 32.473L270.437 35.0477V43.2985H259.846V1.51788H270.437V17.9609C270.437 20.8282 270.262 23.5785 269.794 26.2117H270.028V26.2702ZM310.813 43.9421C305.723 43.9421 301.86 42.5962 298.993 39.963C296.243 37.2713 294.839 33.4092 294.839 28.3768C294.839 23.2274 296.184 19.3068 298.759 16.5565C301.334 13.8063 305.079 12.4019 309.877 12.4019C314.5 12.4019 317.952 13.5722 320.469 15.9714C322.985 18.3705 324.214 21.7645 324.214 26.2702V31.01H305.371C305.488 32.707 306.074 34.0529 307.244 34.9891C308.414 35.9839 309.994 36.3935 312.042 36.3935C313.915 36.3935 315.612 36.218 317.133 35.8669C318.713 35.5158 320.352 34.8721 322.224 34.1114V41.66C320.527 42.4792 318.83 43.0644 317.133 43.4155C315.378 43.7666 313.213 43.9421 310.813 43.9421ZM310.17 19.5994C308.941 19.5994 307.829 19.9505 307.068 20.7697C306.249 21.5889 305.723 22.7008 305.664 24.3977H314.734C314.734 22.8763 314.266 21.706 313.505 20.8282C312.569 20.0675 311.516 19.5994 310.17 19.5994ZM348.439 12.4019C349.317 12.4019 350.195 12.5189 351.014 12.5774L351.658 12.6945L350.663 22.5837C349.785 22.4082 348.615 22.2326 347.093 22.2326C344.753 22.2326 343.114 22.7593 342.12 23.8126C341.066 24.8659 340.54 26.3873 340.54 28.3183V43.2399H330.065V12.8115H337.906L339.486 17.7269H340.013C340.891 16.1469 342.12 14.8011 343.641 13.8063C345.338 12.9285 346.918 12.4019 348.439 12.4019Z" fill="url(#paint0_linear_2060_2927)"/>
<defs>
<linearGradient id="paint0_linear_2060_2927" x1="0.0201418" y1="28.6402" x2="430.02" y2="28.6402" gradientUnits="userSpaceOnUse">
<stop stop-color="#DEE1FF"/>
<stop offset="1" stop-color="#DEE1FF" stop-opacity="0"/>
</linearGradient>
</defs>
</svg>
