<svg width="199" height="73" viewBox="0 0 199 73" fill="none" xmlns="http://www.w3.org/2000/svg">
<path fill-rule="evenodd" clip-rule="evenodd" d="M71.4799 22.2096V44.0231H76.8494H82.2189V35.6333C82.2189 30.096 82.2189 27.0757 82.2189 26.7401C82.3867 25.9011 82.5545 25.0621 83.0579 24.3909C83.7291 23.2163 84.9037 22.7129 86.246 22.8807C88.0918 23.0485 89.2664 24.0553 89.602 26.2367C89.602 26.5723 89.602 29.9282 89.602 35.2977V43.8553H94.9715H100.341V33.7875C100.341 25.2299 100.341 23.5519 100.173 22.7129C99.8376 19.6926 98.8308 17.3435 96.985 15.6655C95.4748 14.1553 93.6291 13.3163 91.4477 12.9807C90.6087 12.8129 88.2596 12.9807 87.5884 13.1485C85.5748 13.6519 84.0647 14.3231 82.7223 15.8333L81.8833 16.5045V8.45023V0.395996H76.5138H71.1443V22.2096H71.4799ZM185.582 0.731591C185.246 1.40278 174.339 27.7468 174.339 27.7468C174.339 27.7468 177.192 27.7468 180.716 27.7468H187.092L192.797 14.1553C195.985 6.60447 198.502 0.395996 198.502 0.395996C198.502 0.395996 195.649 0.395996 192.126 0.395996H185.749L185.582 0.731591ZM47.9884 13.1485C45.6392 13.4841 43.7935 14.1553 41.9477 15.3299C38.2562 17.6791 35.907 21.7062 35.2359 26.4045C34.9003 28.5858 35.0681 31.2706 35.5714 33.2841C36.9138 38.4858 40.4375 42.5129 44.9681 44.0231C46.646 44.5265 47.3172 44.6943 49.3308 44.6943C50.8409 44.6943 51.3443 44.6943 51.8477 44.5265C54.0291 44.0231 55.5392 43.1841 56.8816 41.8418L57.5528 41.1706V42.5129V43.8553H62.7545H67.9562V28.7536V13.6519H62.7545H57.5528V14.9943V16.3367L57.0494 15.8333C55.8748 14.4909 54.1969 13.6519 52.0155 13.1485C51.3443 12.9807 51.0087 12.9807 49.6664 12.9807C48.8274 13.1485 48.1562 13.1485 47.9884 13.1485ZM116.449 13.1485C113.597 13.4841 110.577 14.8265 108.395 16.5045C104.2 20.0282 102.019 25.5655 102.858 31.2706C103.697 37.6468 108.227 42.5129 114.604 44.1909C115.946 44.5265 117.288 44.6943 118.966 44.6943C121.987 44.6943 124.168 44.1909 126.517 43.0163C131.216 40.6672 134.236 36.4723 134.907 31.2706C135.075 29.9282 135.075 27.7468 134.907 26.5723C134.571 24.0553 133.565 21.5384 132.055 19.5248C131.383 18.6858 130.041 17.1757 129.202 16.5045C126.853 14.6587 124.168 13.4841 121.148 13.1485C119.973 12.9807 117.624 12.9807 116.449 13.1485ZM150.68 13.1485C147.827 13.4841 144.975 14.6587 142.793 16.5045C141.954 17.1757 140.444 18.6858 139.941 19.5248C138.431 21.5384 137.592 24.0553 137.088 26.5723C136.921 27.7468 136.921 30.096 137.088 31.2706C138.095 37.9824 142.961 43.1841 149.673 44.5265C151.016 44.8621 151.687 44.8621 153.197 44.8621C156.049 44.8621 158.566 44.3587 160.916 43.0163C167.124 39.8282 170.48 32.7807 168.97 25.5655C167.627 18.8536 162.258 13.9875 155.378 13.1485C154.204 12.9807 151.855 12.9807 150.68 13.1485ZM0.501953 13.8197C0.501953 13.8197 3.35449 20.6994 6.87822 29.0892C10.402 37.479 13.2545 44.3587 13.2545 44.3587C13.2545 44.3587 12.2477 46.8757 10.9053 49.896C9.56297 52.9163 8.55619 55.2655 8.55619 55.4333C8.55619 55.6011 11.0731 55.4333 14.2613 55.4333H19.9664L28.524 34.7943C33.2223 23.3841 37.0816 14.1553 37.0816 13.9875C37.0816 13.9875 35.907 13.8197 31.3765 13.9875H25.6714L22.1477 22.7129C20.6375 27.4112 19.1274 31.4384 19.1274 31.4384C19.1274 31.4384 17.6172 27.4112 15.6036 22.7129L12.2477 13.9875H6.37484C3.1867 13.8197 0.501953 13.8197 0.501953 13.8197ZM53.1901 22.8807C55.3714 23.3841 57.0494 25.0621 57.7206 27.2435C57.8884 28.0824 57.8884 29.5926 57.7206 30.4316C57.2172 32.6129 55.5392 34.2909 53.3579 34.7943C52.5189 34.9621 51.0087 34.9621 50.1697 34.7943C48.324 34.2909 46.646 32.9485 45.9748 31.2706C45.1359 29.4248 45.4714 27.0757 46.4782 25.3977C47.9884 23.2163 50.5053 22.3774 53.1901 22.8807ZM120.141 23.0485C122.49 23.3841 124.336 25.2299 124.839 27.579C125.007 28.418 125.007 29.7604 124.839 30.5994C124.336 32.7807 122.658 34.2909 120.644 34.9621C119.973 35.1299 118.127 35.1299 117.456 34.9621C115.778 34.4587 114.436 33.2841 113.597 31.774C113.093 30.7672 113.093 30.2638 113.093 29.0892C113.093 28.0824 113.261 27.5791 113.597 26.7401C114.1 25.7333 114.771 24.7265 115.778 24.0553C116.785 23.0485 118.463 22.7129 120.141 23.0485ZM154.204 23.0485C156.217 23.3841 157.895 24.7265 158.566 26.5723C158.902 27.4112 159.07 27.9146 159.07 28.9214C159.07 30.096 158.902 30.5994 158.566 31.6062C157.895 33.1163 156.385 34.2909 154.707 34.7943C154.036 34.9621 152.19 34.9621 151.519 34.7943C149.505 34.2909 147.827 32.6129 147.324 30.4316C147.156 29.5926 147.156 28.0824 147.324 27.2435C147.995 24.5587 150.344 22.7129 153.029 22.7129C153.365 22.8807 153.868 22.8807 154.204 23.0485ZM177.024 30.4316C173.836 30.7672 171.487 33.1163 170.816 36.1367C170.648 36.9757 170.648 38.4858 170.816 39.3248C171.487 42.0096 173.5 43.8553 176.185 44.5265C176.521 44.5265 177.192 44.6943 177.695 44.6943C179.709 44.6943 181.387 44.0231 182.729 42.6807C184.239 41.1706 184.743 39.6604 184.743 37.6468C184.743 35.1299 183.568 32.9485 181.555 31.774C180.212 30.5994 178.366 30.2638 177.024 30.4316ZM88.5952 46.8757C86.4138 47.5468 85.407 50.0638 86.5816 51.9096C86.9172 52.4129 87.5884 53.0841 88.0918 53.2519C88.5952 53.4197 88.5952 53.4197 89.602 53.4197C90.4409 53.4197 90.6087 53.4197 91.1121 53.2519C91.7833 52.9163 92.4545 52.2452 92.7901 51.574C93.6291 49.896 92.7901 47.8824 91.1121 47.0435C90.6087 46.7079 90.4409 46.7079 89.7697 46.7079C89.0986 46.7079 88.9308 46.7079 88.5952 46.8757ZM79.5342 47.0435C76.6816 47.5468 74.8359 49.3926 73.9969 52.4129C73.8291 52.9163 73.8291 53.4197 73.8291 54.0909V55.2655H72.6545H71.4799V57.7824V60.2994H72.6545H73.8291V66.3401V72.3807H77.0172H80.2053V66.3401V60.2994H82.3867H84.5681V57.7824V55.2655H82.3867H80.2053V54.7621C80.3731 53.5875 80.8765 52.7485 81.8833 52.5807C82.5545 52.4129 83.5613 52.4129 84.2325 52.7485C84.5681 52.9163 84.7358 52.9163 84.7358 52.9163C84.7358 52.9163 84.7358 51.7418 84.7358 50.2316V47.5468L84.2325 47.3791C83.5613 47.0435 82.7223 47.0435 81.5477 47.0435C80.7087 46.8757 80.0375 47.0435 79.5342 47.0435ZM105.039 54.9299C103.697 55.2655 102.69 55.9367 102.019 56.7757L101.683 57.2791V56.2723V55.2655H98.4952H95.307V63.8231V72.3807H98.4952H101.683V67.6824C101.683 64.9977 101.683 62.8163 101.683 62.4807C101.851 61.8096 102.187 61.1384 102.522 60.8028C103.361 60.1316 104.871 60.2994 105.543 61.1384C106.046 61.8096 106.046 61.8096 106.046 67.1791V72.213H109.234H112.422V66.5079C112.422 60.4672 112.422 59.796 112.087 58.6214C111.751 57.6146 111.416 56.7757 110.577 56.1045C109.905 55.4333 109.234 54.9299 108.227 54.7621C107.388 54.7621 105.71 54.7621 105.039 54.9299ZM120.98 54.7621C119.973 54.9299 118.463 55.4333 117.624 56.1045C115.778 57.4468 114.604 59.4604 114.1 61.9774C113.932 62.9841 113.932 64.8299 114.1 65.8367C114.436 67.3468 114.939 68.857 115.778 69.8638C116.953 71.374 118.463 72.3807 120.309 72.7163C121.316 72.8841 122.993 72.8841 123.832 72.5485C124.839 72.2129 125.51 71.8773 126.349 71.2062L127.021 70.535V71.374V72.213H130.209H133.397V63.6553V55.0977H130.209H127.021V55.9367V56.7757L126.517 56.6079C125.678 55.7689 124.504 55.0977 123.161 54.9299C122.658 54.7621 121.483 54.7621 120.98 54.7621ZM145.31 54.9299C144.136 55.0977 142.961 55.9367 142.29 56.7757L141.954 57.1113V56.1045V55.0977H138.766H135.578V63.6553V72.213H138.766H141.954V67.3468C141.954 62.1452 141.954 62.1452 142.29 61.3062C142.626 60.635 143.297 60.2994 143.968 60.2994C144.639 60.2994 144.975 60.4672 145.478 60.8028C146.149 61.474 146.149 61.3062 146.149 67.0112V72.0452H149.338H152.526V65.8367C152.526 59.6282 152.526 59.6282 152.358 58.957C152.19 58.6214 152.022 57.9502 151.854 57.4468C151.519 56.7757 151.351 56.6079 150.848 56.1045C150.177 55.4333 149.673 55.0977 149.002 54.7621C147.827 54.7621 146.485 54.5943 145.31 54.9299ZM161.922 54.9299C159.07 55.4333 156.888 56.7757 155.546 59.1248C155.21 59.796 154.875 60.635 154.539 61.474C154.371 62.313 154.371 62.4808 154.371 63.8231C154.371 65.3333 154.371 65.8367 154.875 67.0112C155.882 69.8638 158.231 72.0452 161.419 72.7163C161.922 72.8841 162.426 72.8841 163.6 72.8841C165.278 72.8841 165.949 72.7163 167.124 72.213L167.795 71.8773V69.0248V66.1723L167.292 66.5079C166.453 67.0113 165.949 67.1791 164.943 67.1791C163.936 67.1791 163.432 67.179 162.761 66.8435C162.09 66.5079 161.587 66.0045 161.251 65.3333C161.083 64.8299 161.083 64.8299 161.083 63.9909C161.083 63.3197 161.083 63.1519 161.251 62.6485C161.755 61.3062 162.929 60.635 164.607 60.4672C165.782 60.4672 166.285 60.4672 167.963 61.3062C167.963 61.3062 167.963 59.9638 167.963 58.4536V55.6011L167.46 55.4333C165.614 54.7621 163.6 54.5943 161.922 54.9299ZM176.353 54.9299C171.487 55.7689 168.466 59.9638 168.802 64.8299C168.97 66.5079 169.473 68.018 170.312 69.1926C171.487 71.0384 173.332 72.2129 175.682 72.7163C176.688 72.8841 179.373 72.8841 180.548 72.7163C182.226 72.3807 183.736 71.5418 184.91 70.3672C185.414 69.8638 186.253 68.6892 186.253 68.6892C186.253 68.6892 185.078 68.1858 183.568 67.6824L180.883 66.6757L180.548 67.0112C180.044 67.5146 179.709 67.6824 179.038 67.8502C177.192 68.3536 175.346 67.3468 175.01 65.6689V65.3333H180.883H186.756V63.8231C186.756 62.8163 186.756 62.1451 186.588 61.8096C186.253 59.796 185.414 58.4536 184.239 57.1113C183.065 55.9367 181.722 55.2655 179.877 54.9299C179.205 54.7621 177.192 54.7621 176.353 54.9299ZM86.4138 63.8231V72.3807H89.602H92.7901V63.8231V55.2655H89.602H86.4138V63.8231ZM178.87 59.6282C179.373 59.796 179.541 59.9638 180.044 60.2994C180.38 60.635 180.716 60.9706 180.716 61.474V61.8096H177.863C174.675 61.8096 174.843 61.8096 175.178 61.1384C175.682 59.9638 177.192 59.2926 178.87 59.6282ZM124.671 60.4672C125.51 60.635 126.517 61.474 126.853 62.3129C127.692 64.1587 126.853 66.3401 124.839 67.0112C124.168 67.179 123.161 67.179 122.49 67.0112C121.483 66.6757 120.477 65.8367 120.309 64.8299C120.141 64.3265 120.141 64.1587 120.141 63.6553C120.141 62.9841 120.141 62.8163 120.477 62.3129C121.148 60.8028 122.826 60.1316 124.671 60.4672Z" fill="#DEE1FF"/>
</svg>
